<?xml version="1.0" encoding="iso-8859-1"?>
<!-- Generator: Adobe Illustrator 13.0.0, SVG Export Plug-In . SVG Version: 6.00 Build 14948)  -->
<!DOCTYPE svg PUBLIC "-//W3C//DTD SVG 1.1//EN" "http://www.w3.org/Graphics/SVG/1.1/DTD/svg11.dtd">
<svg version="1.1" xmlns="http://www.w3.org/2000/svg" xmlns:xlink="http://www.w3.org/1999/xlink" x="0px" y="0px" width="300px"
	 height="300px" viewBox="0 0 300 300" style="enable-background:new 0 0 300 300;" xml:space="preserve">
<defs>
<filter id="Gaussian_Blur">
<feGaussianBlur in="SourceGraphic" stdDeviation="4" />
</filter>
</defs>
<g id="Layer_1" style="opacity:0.75;">
	<g>
		<path d="M169.971,143.892l7.854-25.241l-42.367,17.611L169.971,143.892 M261.906,96.303
			c-32.239-32.61-110.593-26.568-141.369-18.938c-35.976,9.206-45.563,36.561-44.629,80.997
			c0.406,25.511,11.456,48.142,33.038,55.771c43.841,15.235,81.415,13.132,120.854-24.734
			c-20.243-21.83-37.032-29.447-64.624-27.354c-26.781,1.315-41.961-2.893-61.024-23.665c23.181-22.349,37.438-33.129,65.423-36.031
			c31.317-3.151,59.156,10.003,71.288,22.347c11.309,11.568,17.047,38.136,14.256,70.229c-2.126,26.04-10.397,41.287-29.46,46.812
			c-24.641,7.629-60.348,11.311-93.251,9.994c-38.913-1.566-59.303-9.476-65.042-15.519c-11.973-13.402-20.773-41.804-22.776-74.415
			c-1.991-32.622,3.062-63.387,13.2-80.222c9.981-16.834,47.025-28.66,101.522-32.081c45.451-2.634,87.684,0.787,88.212,0.787
			l-2.803-36.29c0,0-97.269,11.309-112.19,12.614c-36.11,3.421-84.733,11.309-100.994,38.665
			C2.484,114.184,9.82,218.317,44.997,257.253c31.44,34.984,140.571,29.19,189.476,14.472c21.977-6.573,46.89-24.735,51.155-74.169
			C288.553,164.935,284.029,118.911,261.906,96.303z M164.107,183.613l34.514,7.63l-42.367,17.61L164.107,183.613z" style="filter:url(#Gaussian_Blur)"/>
	</g>
</g>
<g id="Layer_1_copy">
	<path style="fill:#FFFFFF;" d="M167.965,140.977l7.854-25.241l-42.368,17.612L167.965,140.977 M259.905,93.386
		c-32.241-32.612-110.598-26.569-141.376-18.939c-35.977,9.205-45.565,36.562-44.631,81.001
		c0.406,25.512,11.456,48.143,33.04,55.771c43.844,15.237,81.418,13.133,120.861-24.734c-20.244-21.831-37.034-29.45-64.628-27.356
		c-26.783,1.316-41.963-2.893-61.027-23.666c23.182-22.35,37.44-33.13,65.427-36.034c31.318-3.151,59.159,10.004,71.291,22.349
		c11.309,11.569,17.048,38.138,14.257,70.232c-2.126,26.041-10.398,41.289-29.462,46.813c-24.644,7.63-60.352,11.311-93.256,9.994
		c-38.914-1.565-59.306-9.476-65.044-15.519c-11.974-13.403-20.774-41.807-22.777-74.419c-1.992-32.623,3.061-63.39,13.2-80.225
		c9.982-16.835,47.027-28.662,101.527-32.083c45.452-2.633,87.688,0.788,88.216,0.788l-2.803-36.292
		c0,0-97.274,11.31-112.196,12.615c-36.112,3.421-84.737,11.31-100.999,38.667C0.47,111.268,7.807,215.406,42.985,254.344
		c31.442,34.985,140.578,29.191,189.485,14.472c21.978-6.572,46.893-24.735,51.158-74.172
		C286.553,162.021,282.029,115.994,259.905,93.386z M162.102,180.7l34.515,7.63l-42.368,17.612L162.102,180.7z"/>
</g>
</svg>
