<?xml version="1.0" encoding="utf-8"?>
<!-- Generator: Adobe Illustrator 15.1.0, SVG Export Plug-In . SVG Version: 6.00 Build 0)  -->
<!DOCTYPE svg PUBLIC "-//W3C//DTD SVG 1.1//EN" "http://www.w3.org/Graphics/SVG/1.1/DTD/svg11.dtd">
<svg version="1.1" id="Layer_1" xmlns="http://www.w3.org/2000/svg" xmlns:xlink="http://www.w3.org/1999/xlink" x="0px" y="0px"
	 width="800px" height="600px" viewBox="0 0 800 600" enable-background="new 0 0 800 600" xml:space="preserve">
<path fill="#5E5E5E" d="M400,0C234.25,0,100,134.325,100,300c0,132.563,85.95,244.987,205.125,284.625
	c15,2.813,20.513-6.45,20.513-14.438c0-7.125-0.263-25.987-0.375-51C241.788,537.3,224.2,478.95,224.2,478.95
	c-13.65-34.65-33.375-43.875-33.375-43.875c-27.188-18.601,2.1-18.226,2.1-18.226c30.113,2.101,45.938,30.9,45.938,30.9
	c26.775,45.862,70.238,32.625,87.375,24.938c2.7-19.388,10.425-32.625,19.013-40.125c-66.638-7.5-136.65-33.3-136.65-148.237
	c0-32.738,11.625-59.513,30.862-80.513c-3.112-7.575-13.425-38.063,2.888-79.388c0,0,25.2-8.063,82.5,30.75
	c23.925-6.675,49.612-9.975,75.113-10.125c25.5,0.15,51.149,3.45,75.112,10.125c57.263-38.813,82.425-30.75,82.425-30.75
	c16.388,41.325,6.112,71.813,3,79.388c19.237,21,30.862,47.775,30.862,80.513c0,115.237-70.125,140.625-136.987,148.013
	c10.763,9.225,20.362,27.563,20.362,55.5c0,40.125-0.375,72.487-0.375,82.313c0,8.063,5.4,17.362,20.625,14.438
	C614.125,544.875,700,432.525,700,300C700,134.325,565.675,0,400,0"/>
</svg>
