<?xml version="1.0" encoding="UTF-8" standalone="no"?><!DOCTYPE svg PUBLIC "-//W3C//DTD SVG 1.1//EN" "http://www.w3.org/Graphics/SVG/1.1/DTD/svg11.dtd"><svg width="100%" height="100%" viewBox="0 0 128 128" version="1.1" xmlns="http://www.w3.org/2000/svg" xmlns:xlink="http://www.w3.org/1999/xlink" xml:space="preserve" style="fill-rule:evenodd;clip-rule:evenodd;stroke-linejoin:round;stroke-miterlimit:1.41421;"><path d="M27.854,116.354l-8.043,-90.211l88.378,0l-8.051,90.197l-36.192,10.033l-36.092,-10.019Z" style="fill:#e44d26;fill-rule:nonzero;"/><path d="M64,118.704l29.244,-8.108l6.881,-77.076l-36.125,0l0,85.184Z" style="fill:#f16529;fill-rule:nonzero;"/><path d="M64,66.978l-14.641,0l-1.01,-11.331l15.651,0l0,-11.064l-27.743,0l0.264,2.969l2.72,30.489l24.759,0l0,-11.063Zm0,28.733l-0.049,0.013l-12.321,-3.328l-0.788,-8.823l-11.107,0l1.55,17.372l22.664,6.292l0.051,-0.015l0,-11.511Z" style="fill:#ebebeb;fill-rule:nonzero;"/><path d="M28.034,1.627l5.622,0l0,5.556l5.144,0l0,-5.556l5.623,0l0,16.822l-5.623,0l0,-5.633l-5.143,0l0,5.633l-5.623,0l0,-16.822l0,0Zm23.782,5.579l-4.95,0l0,-5.579l15.525,0l0,5.579l-4.952,0l0,11.243l-5.623,0l0,-11.243l0,0Zm13.039,-5.579l5.862,0l3.607,5.911l3.603,-5.911l5.865,0l0,16.822l-5.601,0l0,-8.338l-3.867,5.981l-0.098,0l-3.87,-5.981l0,8.338l-5.502,0l0,-16.822l0.001,0Zm21.736,0l5.624,0l0,11.262l7.907,0l0,5.561l-13.531,0l0,-16.823l0,0Z" style="fill:#fff;fill-rule:nonzero;"/><path d="M63.962,66.978l0,11.063l13.624,0l-1.284,14.349l-12.34,3.331l0,11.51l22.682,-6.286l0.166,-1.87l2.6,-29.127l0.27,-2.97l-2.982,0l-22.736,0Zm0,-22.395l0,11.064l26.725,0l0.221,-2.487l0.505,-5.608l0.265,-2.969l-27.716,0Z" style="fill:#fff;fill-rule:nonzero;"/></svg>