<?xml version="1.0" encoding="utf-8"?>
<!-- Generator: Adobe Illustrator 15.1.0, SVG Export Plug-In . SVG Version: 6.00 Build 0)  -->
<!DOCTYPE svg PUBLIC "-//W3C//DTD SVG 1.1//EN" "http://www.w3.org/Graphics/SVG/1.1/DTD/svg11.dtd">
<svg version="1.1" id="Layer_1" xmlns="http://www.w3.org/2000/svg" xmlns:xlink="http://www.w3.org/1999/xlink" x="0px" y="0px"
	 width="800px" height="600px" viewBox="0 0 800 600" enable-background="new 0 0 800 600" xml:space="preserve">
<path fill="#FFFFFF" d="M611.2,511.313h-88.875V372.075c0-33.226-0.675-75.938-46.275-75.938c-46.313,0-53.399,36.149-53.399,73.5
	v141.675h-88.875V225h85.35v39h1.125c11.925-22.5,40.95-46.237,84.263-46.237c90,0,106.688,59.25,106.688,136.388V511.2V511.313z
	 M233.425,185.813c-28.575,0-51.6-23.138-51.6-51.638c0-28.425,23.025-51.563,51.6-51.563c28.5,0,51.6,23.138,51.6,51.563
	C285.025,162.675,261.888,185.813,233.425,185.813z M277.975,511.313h-89.1V225h89.1V511.313z M655.6,0H144.25
	C119.8,0,100,19.35,100,43.237v513.525C100,580.65,119.8,600,144.25,600h511.313c24.45,0,44.438-19.35,44.438-43.237V43.237
	C700,19.35,680.013,0,655.563,0H655.6z"/>
</svg>
