<?xml version="1.0" encoding="UTF-8" standalone="no"?><!DOCTYPE svg PUBLIC "-//W3C//DTD SVG 1.1//EN" "http://www.w3.org/Graphics/SVG/1.1/DTD/svg11.dtd"><svg width="100%" height="100%" viewBox="0 0 51 38" version="1.1" xmlns="http://www.w3.org/2000/svg" xmlns:xlink="http://www.w3.org/1999/xlink" xml:space="preserve" style="fill-rule:evenodd;clip-rule:evenodd;stroke-linejoin:round;stroke-miterlimit:1.41421;"><g><g><path d="M25.081,26.191l-6.206,-5.672l-17.743,15.883c0.645,0.625 1.516,1.014 2.476,1.014l42.946,0c0.957,0 1.824,-0.389 2.465,-1.014l-17.732,-15.883l-6.206,5.672Z" style="fill:#fff;fill-rule:nonzero;"/><path d="M49.03,1.014c-0.645,-0.629 -1.512,-1.014 -2.476,-1.014l-42.946,0c-0.957,0 -1.824,0.389 -2.469,1.021l23.942,21.428l23.949,-21.435Z" style="fill:#fff;fill-rule:nonzero;"/><path d="M0,3.285l0,31.085l17.317,-15.367l-17.317,-15.718Z" style="fill:#fff;fill-rule:nonzero;"/><path d="M32.846,19.003l17.316,15.367l0,-31.096l-17.316,15.729Z" style="fill:#fff;fill-rule:nonzero;"/></g></g></svg>