<?xml version="1.0" encoding="utf-8"?>
<!-- Generator: Adobe Illustrator 15.1.0, SVG Export Plug-In . SVG Version: 6.00 Build 0)  -->
<!DOCTYPE svg PUBLIC "-//W3C//DTD SVG 1.1//EN" "http://www.w3.org/Graphics/SVG/1.1/DTD/svg11.dtd">
<svg version="1.1" id="Layer_1" xmlns="http://www.w3.org/2000/svg" xmlns:xlink="http://www.w3.org/1999/xlink" x="0px" y="0px"
	 width="800px" height="600px" viewBox="0 0 800 600" enable-background="new 0 0 800 600" xml:space="preserve">
<path fill="#5E5E5E" d="M700,113.925c-22.125,9.75-45.75,16.388-70.688,19.388c25.388-15.263,44.925-39.375,54.112-68.1
	c-23.774,14.063-50.138,24.3-78.188,29.813c-22.425-23.925-54.375-38.85-89.85-38.85c-67.95,0-123.075,55.05-123.075,123
	c0,9.675,1.125,19.125,3.188,28.125c-102.3-5.175-193.013-54.15-253.725-128.55c-10.65,18.112-16.65,39.263-16.65,61.875
	c0,42.75,21.75,80.362,54.75,102.45c-20.175-0.638-39.188-6.188-55.763-15.375v1.5c0,59.625,42.375,109.425,98.738,120.75
	c-10.35,2.774-21.225,4.274-32.438,4.274c-7.875,0-15.6-0.75-23.138-2.175c15.675,48.9,61.125,84.487,115.013,85.5
	c-42.15,33-95.25,52.65-152.888,52.65c-9.938,0-19.725-0.563-29.362-1.688c54.487,34.875,119.175,55.274,188.7,55.274
	c226.425,0,350.25-187.5,350.25-350.175c0-5.362-0.149-10.65-0.375-15.938c24-17.362,44.925-39,61.425-63.75H700z"/>
</svg>
